<?xml version="1.0" encoding="UTF-8"?>
<svg width="72px" height="72px" viewBox="0 0 72 72" version="1.1" xmlns="http://www.w3.org/2000/svg" xmlns:xlink="http://www.w3.org/1999/xlink">
    <!-- Generator: Sketch 58 (84663) - https://sketch.com -->
    <title>iconmonstr-rocket-12 (1)</title>
    <desc>Created with Sketch.</desc>
    <g id="Slides" stroke="none" stroke-width="1" fill="none" fill-rule="evenodd">
        <g id="Artboard" transform="translate(-1412.000000, -778.000000)" fill="#FFFFFF" fill-rule="nonzero">
            <g id="iconmonstr-rocket-12-(1)" transform="translate(1412.000000, 778.000000)">
                <path d="M24.033,18.645 C18.9,18.618 12.453,21.399 7.536,26.316 C5.661,28.191 4.008,30.381 2.733,32.838 C7.17,29.481 11.904,28.428 17.442,31.536 C19.074,27.225 21.252,22.836 24.033,18.645 Z M53.388,47.964 C48.84,50.937 44.367,53.082 40.497,54.594 C43.605,60.138 42.555,64.866 39.195,69.3 C41.652,68.028 43.842,66.375 45.72,64.494 C50.652,59.568 53.436,53.106 53.388,47.964 L53.388,47.964 Z M71.844,0.126 C70.608,0.042 69.396,-1.87350135e-16 68.205,-1.87350135e-16 C42.399,-1.87350135e-16 27.711,19.674 22.365,35.499 L36.549,49.686 C52.833,43.848 72,29.703 72,4.17 L72,3.999 C71.994,2.739 71.943,1.446 71.844,0.126 Z M42.18,29.856 C41.007,28.683 41.007,26.787 42.18,25.614 C43.353,24.441 45.249,24.441 46.422,25.614 C47.595,26.787 47.595,28.683 46.422,29.856 C45.249,31.029 43.35,31.026 42.18,29.856 Z M50.664,21.372 C48.321,19.032 48.321,15.231 50.664,12.888 C53.007,10.545 56.808,10.545 59.148,12.888 C61.491,15.231 61.491,19.029 59.148,21.372 C56.805,23.715 53.007,23.715 50.664,21.372 Z M31.062,52.686 C26.586,64.116 13.653,71.31 3.55271368e-15,72 C0.657,59.133 7.971,45.972 19.92,41.541 L22.335,43.959 C9.342,52.224 8.376,59.997 8.34,63.684 C12.144,63.639 20.502,62.652 28.674,50.292 L31.062,52.686 L31.062,52.686 Z" id="Shape"></path>
            </g>
        </g>
    </g>
</svg>